<svg width="534" height="124" viewBox="0 0 534 124" fill="none" xmlns="http://www.w3.org/2000/svg">
<path d="M56.6092 42.7339C55.1915 41.7823 53.4894 41.3187 51.5951 41.3198C47.8926 41.3058 44.6874 43.0949 42.2379 46.4255C39.7535 49.7703 38.5404 54.0506 38.5431 59.1573L38.544 59.2157C38.6394 60.6625 38.7342 62.0141 38.829 63.2719C38.9216 64.5037 38.9696 65.7469 38.9696 67.0021C38.9696 68.3823 39.042 69.9449 39.1852 71.6911C39.327 73.4047 39.3967 74.4891 39.3962 74.8119C39.3863 80.9438 37.4774 85.811 33.6462 89.6313C29.8008 93.4438 24.9451 95.3406 18.8634 95.3501C14.2748 95.3433 10.5592 94.0662 7.56075 91.5203C4.56179 88.9526 3.13575 85.9542 3.12326 82.2755C3.13627 78.4501 4.592 75.3943 7.6394 72.8406C10.6946 70.3067 14.5019 69.0282 19.2128 69.0229C22.7274 69.0219 25.3759 69.6635 27.1852 70.8329C28.9931 72.0255 29.7822 73.449 29.8046 75.4725C29.792 77.5531 29.0284 79.1895 27.3712 80.6297C25.704 82.0583 23.7024 82.7693 21.2071 82.7745C19.8374 82.7745 18.6727 82.5047 17.6702 81.9881C16.6555 81.463 15.7806 80.7015 15.0254 79.6651C14.879 79.4646 14.655 79.3318 14.4098 79.3006C14.1628 79.2693 13.9128 79.3406 13.7212 79.4985L12.9415 80.1391C12.5743 80.4386 12.5035 80.9709 12.7774 81.3589C13.7686 82.7625 14.9702 83.8433 16.3659 84.5542C17.7675 85.2703 19.3951 85.613 21.2087 85.613C24.3888 85.6193 27.1462 84.6313 29.2983 82.6583C31.444 80.7157 32.5816 78.2469 32.5712 75.4725C32.5874 72.4881 31.2436 69.9255 28.7431 68.087C26.2488 66.2313 23.0664 65.3318 19.306 65.3329C14.0082 65.3266 9.45034 66.9734 5.80659 70.2537C2.16023 73.5125 0.273251 77.601 0.285231 82.2938C0.271689 86.8187 2.10659 90.7053 5.64826 93.6922C9.18211 96.6963 13.6322 98.1922 18.8436 98.187H18.8806C25.9352 98.187 31.9607 95.7469 36.7483 90.9229C41.5546 86.1037 43.9826 80.0307 43.9732 72.9162C43.9727 71.3969 43.7732 68.8797 43.3816 65.2859C42.9931 61.7302 42.8008 58.9578 42.8008 57.0021C42.8035 53.1391 43.7144 50.0619 45.4831 47.6635C47.291 45.2433 49.253 44.1703 51.5951 44.1583C52.6926 44.1583 53.5358 44.4021 54.2046 44.8433C54.9394 45.3343 55.0712 45.687 55.0607 45.8474C55.0612 46.1583 55.0014 46.3239 54.9607 46.3891H54.9598L54.6519 46.2234C54.3732 46.0739 54.0322 46.0818 53.7603 46.2443C53.4879 46.4073 53.3196 46.7026 53.3196 47.0203V47.2329C53.3207 47.9682 53.4707 48.6583 53.905 49.213C54.3352 49.7823 55.0634 50.0698 55.7508 50.0558C56.6186 50.0662 57.4336 49.6323 57.9983 48.9605C58.5868 48.2886 58.8992 47.4229 58.8926 46.5219C58.9055 44.9943 58.0232 43.6599 56.6092 42.7339Z" fill="white"/>
<path d="M64.6282 91.7459L63.8121 91.1783C63.4042 90.8945 62.8407 90.9945 62.5563 91.4022C61.6323 92.7199 60.8495 93.6522 60.2787 94.1574C59.7845 94.6445 59.3985 94.8475 59.1954 94.9059C59.1933 94.8929 59.1923 94.8746 59.1913 94.8511L59.2547 93.8631L59.5178 92.7147L62.8511 80.4335C62.9323 80.1314 62.8527 79.8085 62.6375 79.5793C62.4225 79.3502 62.1069 79.2497 61.799 79.3111L59.347 79.8085C59.0137 79.8762 58.7443 80.1287 58.6547 80.4569L58.5345 80.9007C58.0183 80.5309 57.4975 80.2199 56.9699 79.9674C56.0547 79.5298 55.1189 79.2939 54.1855 79.2939C51.1313 79.2877 48.3282 80.5074 45.9318 82.8293C43.5246 85.1366 42.2423 87.8694 42.2501 90.8631C42.2423 92.9033 42.9142 94.7121 44.2418 96.0897C45.5375 97.4595 47.2105 98.1975 49.0511 98.1871C50.5495 98.1897 51.9985 97.8137 53.3511 97.0855C54.0725 96.6965 54.7574 96.2262 55.4047 95.6793C55.5266 96.259 55.7834 96.7929 56.1845 97.221C56.7397 97.8407 57.5522 98.1871 58.3886 98.1871H58.4287C59.5547 98.1757 60.6142 97.6063 61.7271 96.6809C62.8459 95.7407 63.8866 94.5038 64.8719 92.9787C65.1361 92.5689 65.0293 92.0246 64.6282 91.7459ZM46.5085 91.0793C46.5151 88.8319 47.3146 86.8319 49.0151 84.9387C50.7345 83.0481 52.4678 82.2095 54.3569 82.2027C54.9427 82.2027 55.5501 82.3642 56.2131 82.7314C56.7558 83.0325 57.2637 83.4413 57.737 83.9735L55.7287 91.3669C54.7683 92.5845 53.7735 93.5178 52.7533 94.1819C51.6938 94.8721 50.7533 95.1715 49.9063 95.1715C48.909 95.1601 48.1979 94.833 47.5162 94.0595C46.8517 93.2783 46.5142 92.3382 46.5085 91.0793Z" fill="white"/>
<path d="M84.1907 80.1974C83.5527 79.6297 82.6964 79.3979 81.7751 79.4006C80.1387 79.4411 78.7324 80.5895 77.1673 82.4777C76.324 83.5151 75.3521 84.9567 74.2376 86.8162C74.3053 86.5151 74.3683 86.2286 74.4272 85.9578C74.7777 84.3015 74.9641 83.2537 74.9709 82.5714C74.9673 81.7119 74.8288 80.9619 74.3917 80.3433C73.9657 79.725 73.2016 79.3813 72.4688 79.4006C71.3783 79.4187 70.386 79.9969 69.2876 80.9229C68.1959 81.8578 67.0392 83.1479 65.7803 84.8058C65.6355 84.9985 65.5725 85.2433 65.6068 85.4829C65.6407 85.7209 65.7715 85.937 65.9663 86.0802L66.7835 86.6807C67.1855 86.9761 67.7501 86.8891 68.0455 86.4881C68.9444 85.2651 69.6808 84.3719 70.2141 83.8354C70.5344 83.549 70.8021 83.3449 70.9876 83.2329C70.9897 83.2313 70.9923 83.2302 70.9944 83.2286C70.9699 83.4266 70.8261 84.2417 70.5657 85.3719C70.2657 86.7042 69.8136 88.5922 69.2116 91.0271L67.7188 97.0662C67.6464 97.3589 67.7245 97.6677 67.9277 97.8917C68.1001 98.0818 68.3423 98.187 68.5949 98.187C68.6392 98.187 68.6835 98.1843 68.7277 98.1782L71.1433 97.8225C71.4335 97.7807 71.686 97.5985 71.8188 97.337C73.1173 94.7693 74.2959 92.5349 75.3543 90.6349C76.41 88.7381 77.3579 87.1739 78.1887 85.9553C79.0037 84.7625 79.7272 83.8849 80.3116 83.3449C80.8168 82.8657 81.2111 82.6911 81.3657 82.6662C81.4491 82.6807 81.5079 82.6974 81.5417 82.7105C81.522 82.7911 81.4985 82.8474 81.4761 82.8865C81.3412 83.0073 81.198 83.0933 81.0292 83.1583C80.6824 83.2886 80.4501 83.6219 80.4455 83.9933C80.4412 84.3641 80.6652 84.7001 81.0089 84.8406L81.6125 85.0854L81.8064 85.1401L82.4459 85.2443L82.5933 85.2573C83.3147 85.2625 83.9761 84.8927 84.4469 84.3667C84.9511 83.8302 85.2444 83.1141 85.236 82.3813C85.2548 81.5386 84.8704 80.7001 84.1907 80.1974Z" fill="white"/>
<path d="M105.746 91.7459L104.929 91.1783C104.521 90.8945 103.958 90.9945 103.673 91.4022C102.749 92.7199 101.966 93.6522 101.395 94.1574C100.902 94.6445 100.517 94.8475 100.313 94.9059C100.311 94.8929 100.309 94.8746 100.308 94.8502L100.372 93.8631L100.635 92.7147L103.968 80.4335C104.051 80.1314 103.969 79.8085 103.755 79.5793C103.54 79.3502 103.224 79.2497 102.916 79.3111L100.465 79.8085C100.132 79.8762 99.861 80.1287 99.7724 80.4569L99.6522 80.9007C99.1355 80.5309 98.6146 80.2199 98.0875 79.9674C97.1719 79.5298 96.236 79.2939 95.3036 79.2939C92.2495 79.2877 89.4448 80.5074 87.0495 82.8293C84.6422 85.1366 83.3599 87.8694 83.3672 90.8631C83.3599 92.9033 84.0307 94.7121 85.3588 96.0897C86.6558 97.4595 88.3282 98.1975 90.1683 98.1871C91.6667 98.1897 93.1167 97.8137 94.4683 97.0855C95.1902 96.6965 95.8751 96.2262 96.523 95.6793C96.6443 96.259 96.9006 96.7929 97.3011 97.221C97.8574 97.8407 98.6694 98.1871 99.5063 98.1871H99.5464C100.673 98.1757 101.731 97.6063 102.844 96.6809C103.963 95.7407 105.005 94.5038 105.989 92.9787C106.253 92.5689 106.146 92.0246 105.746 91.7459ZM87.6255 91.0793C87.6318 88.8319 88.4318 86.8319 90.1328 84.9387C91.8516 83.0481 93.5844 82.2095 95.4746 82.2027C96.061 82.2027 96.6678 82.3642 97.3307 82.7314C97.874 83.0325 98.3803 83.4413 98.8542 83.9735L96.8459 91.3669C95.8855 92.5845 94.8902 93.5178 93.8703 94.1819C92.812 94.8721 91.8703 95.1715 91.023 95.1715C90.026 95.1601 89.3151 94.833 88.6344 94.0595C87.9688 93.2783 87.6318 92.3382 87.6255 91.0793Z" fill="white"/>
<path d="M214.533 91.7458L213.715 91.1783C213.307 90.8944 212.745 90.9944 212.459 91.4021C211.537 92.7199 210.754 93.6521 210.182 94.1573C209.689 94.6444 209.303 94.8475 209.099 94.9059C209.098 94.8928 209.095 94.8745 209.095 94.8501L209.159 93.8631L209.422 92.7147L212.755 80.4335C212.837 80.1313 212.755 79.8084 212.543 79.5792C212.327 79.3501 212.01 79.2496 211.702 79.3111L209.251 79.8084C208.917 79.8761 208.647 80.1287 208.559 80.4568L208.438 80.9007C207.922 80.5308 207.402 80.2199 206.874 79.9673C205.958 79.5297 205.022 79.2938 204.091 79.2938C201.037 79.2876 198.231 80.5073 195.837 82.8292C194.063 84.5297 192.903 86.4605 192.417 88.5568C192.393 88.562 192.37 88.5636 192.346 88.5714C192.103 88.6469 191.903 88.8215 191.797 89.0532C190.778 91.2573 189.797 92.8787 188.917 93.884C188.026 94.9073 187.294 95.2521 186.791 95.2433C186.51 95.2313 186.361 95.174 186.122 94.9162C185.945 94.6453 185.819 94.2392 185.814 93.6365L186.054 91.4673C186.238 90.3433 186.457 89.3032 186.707 88.3485L192.677 64.8616C192.71 64.7261 192.799 64.4396 192.937 64.0506L192.971 63.9267C193.003 63.76 193.059 63.4032 193.155 62.7668C193.253 62.1245 193.314 61.6245 193.341 61.2381C193.366 60.8787 193.379 60.5584 193.379 60.2693C193.379 58.2704 192.929 56.5844 191.922 55.3188C190.95 54.0751 189.535 53.384 187.969 53.3969C185.85 53.3901 183.903 54.3475 182.286 56.0819C180.651 57.8302 178.967 60.7729 177.097 64.9892L168.243 85.0584L172.669 66.0125C172.953 64.936 173.171 64.0021 173.321 63.2261C173.47 62.4501 173.603 61.536 173.726 60.4777C173.966 58.8396 174.09 57.3797 174.091 56.1131C174.087 53.8563 173.705 52.0438 172.799 50.6887C171.911 49.3344 170.457 48.5802 168.817 48.6026C166.615 48.5949 164.603 49.6297 162.941 51.4959C161.269 53.3668 159.613 56.3683 157.861 60.5611L149.298 81.562L149.842 79.2027C152.425 68.2625 153.727 61.2001 153.737 57.7381C153.739 52.9594 152.583 49.0152 150.199 46.0272C147.838 43.0412 144.617 41.4829 140.826 41.4985C136.223 41.4829 132.279 43.6938 129.26 47.8682C126.221 52.0386 124.715 57.1611 124.719 63.1313C124.717 68.1923 125.917 72.8527 128.319 77.048C130.715 81.2444 134.007 84.4319 138.141 86.5428C138.534 86.7444 139.015 86.6297 139.279 86.2756L139.882 85.4594C140.042 85.2444 140.098 84.9709 140.034 84.7105C139.971 84.4501 139.797 84.2313 139.558 84.1131C135.841 82.2704 132.936 79.5204 130.783 75.7939C128.635 72.0673 127.558 67.8682 127.556 63.1313C127.558 57.7783 128.801 53.424 131.239 49.9699C133.703 46.5141 136.565 44.9204 140.094 44.9032C142.873 44.9204 144.97 45.9751 146.697 48.2365C148.403 50.4996 149.298 53.5636 149.299 57.5256C149.305 59.5725 148.682 63.6819 147.418 69.674C146.155 75.6783 144.103 84.3865 141.263 95.7876C141.207 96.01 141.238 96.2433 141.35 96.4449C141.539 96.7928 141.85 97.1089 142.242 97.2783C142.647 97.4464 143.026 97.4709 143.494 97.4777C144.182 97.4751 144.795 97.3745 145.335 97.0829C145.859 96.799 146.266 96.3354 146.521 95.7938L146.539 95.7485L158.958 65.4777C161.285 59.9007 163.127 56.1844 164.363 54.4734C165.727 52.6392 166.959 51.9256 167.963 51.9371C168.642 51.9647 168.954 52.1417 169.334 52.734C169.698 53.3475 169.942 54.384 169.939 55.8302C169.942 56.3668 169.795 57.6116 169.493 59.4188L167.511 68.8953L161.329 95.7668C161.275 95.9944 161.313 96.2313 161.434 96.4335C161.635 96.7693 161.909 97.0802 162.307 97.2677C162.731 97.4542 163.106 97.4683 163.594 97.4777C164.286 97.4761 164.921 97.3616 165.475 97.0688C166.014 96.7901 166.457 96.312 166.671 95.7381L179.626 66.462C181.59 62.048 183.158 59.1834 184.139 58.0506C185.255 56.8188 186.317 56.312 187.431 56.3068C188.099 56.3267 188.378 56.4865 188.662 56.8631C188.935 57.2381 189.162 58.0335 189.155 59.2381C189.165 59.9229 188.854 61.686 188.21 64.2772L187.933 65.3735L182.947 84.9865C182.707 85.8616 182.505 86.6834 182.346 87.437C182.19 88.1756 182.038 88.9152 181.895 89.6532C181.649 91.0204 181.519 92.0584 181.519 92.8449C181.517 94.4007 181.886 95.7668 182.695 96.8355C183.542 97.9021 184.737 98.5073 186.039 98.5073H186.082C187.689 98.51 189.19 97.7147 190.498 96.3475C191.214 95.6011 191.906 94.661 192.589 93.5376C192.921 94.4906 193.437 95.3526 194.146 96.0896C195.442 97.4594 197.114 98.1974 198.955 98.187C200.453 98.1896 201.903 97.8136 203.255 97.0855C203.977 96.6964 204.662 96.2261 205.31 95.6792C205.431 96.2589 205.687 96.7928 206.087 97.2209C206.643 97.8406 207.455 98.187 208.293 98.187H208.333C209.458 98.1756 210.518 97.6063 211.631 96.6808C212.75 95.7407 213.791 94.5037 214.775 92.9786C215.041 92.5688 214.933 92.0245 214.533 91.7458ZM205.633 91.3668C204.671 92.5844 203.677 93.5177 202.658 94.1818C201.598 94.872 200.657 95.1714 199.81 95.1714C198.813 95.16 198.103 94.8329 197.421 94.0595C196.755 93.2783 196.419 92.3381 196.413 91.0792C196.419 88.8319 197.219 86.8318 198.919 84.9386C200.638 83.048 202.371 82.2095 204.261 82.2027C204.847 82.2027 205.454 82.3641 206.117 82.7313C206.661 83.0324 207.167 83.4412 207.641 83.9735L205.633 91.3668Z" fill="white"/>
<path d="M234.346 80.1974C233.709 79.6297 232.853 79.3979 231.932 79.4006C230.296 79.4411 228.889 80.5895 227.324 82.4777C226.48 83.5151 225.509 84.9567 224.394 86.8162C224.461 86.5151 224.525 86.2286 224.582 85.9578C224.934 84.3015 225.121 83.2537 225.126 82.5714C225.124 81.7119 224.985 80.9619 224.548 80.3433C224.124 79.725 223.358 79.3813 222.625 79.4006C221.534 79.4187 220.542 79.9969 219.444 80.9229C218.352 81.8578 217.194 83.1479 215.937 84.8058C215.792 84.9985 215.728 85.2433 215.764 85.4829C215.797 85.7209 215.928 85.937 216.122 86.0802L216.94 86.6807C217.342 86.9761 217.906 86.8891 218.202 86.4881C219.105 85.2599 219.845 84.363 220.378 83.8277C220.694 83.5453 220.96 83.3433 221.142 83.2329L221.15 83.2286C221.126 83.4266 220.981 84.2417 220.721 85.3719C220.421 86.7042 219.97 88.5922 219.368 91.0271L217.876 97.0662C217.802 97.3589 217.881 97.6677 218.084 97.8917C218.257 98.0818 218.498 98.187 218.752 98.187C218.796 98.187 218.84 98.1843 218.884 98.1782L221.3 97.8225C221.59 97.7807 221.842 97.5985 221.976 97.337C223.273 94.7693 224.452 92.5349 225.51 90.6349C226.566 88.7381 227.514 87.1739 228.345 85.9553C229.16 84.7625 229.884 83.8849 230.468 83.3449C230.973 82.8657 231.366 82.6911 231.522 82.6662C231.605 82.6807 231.664 82.6974 231.698 82.7105C231.678 82.7911 231.654 82.8474 231.632 82.8865C231.497 83.0073 231.354 83.0933 231.185 83.1583C230.837 83.2886 230.606 83.6219 230.602 83.9933C230.597 84.3641 230.821 84.7001 231.165 84.8406L231.769 85.0854L231.962 85.1401L232.602 85.2443L232.749 85.2573C233.47 85.2625 234.132 84.8927 234.604 84.3667C235.108 83.8302 235.4 83.1141 235.392 82.3813C235.41 81.5386 235.026 80.7001 234.346 80.1974Z" fill="white"/>
<path d="M249.328 92.2026L248.51 91.5635C248.12 91.2573 247.557 91.3225 247.248 91.7105C246.429 92.7339 245.62 93.5558 244.836 94.1766C244.438 94.4906 244.102 94.713 243.852 94.8433C243.601 94.9761 243.444 94.9969 243.442 94.9958C243.314 94.9933 243.222 94.9786 243.145 94.9542C243.142 94.9343 243.14 94.9099 243.138 94.8797L243.232 94.0739L243.606 92.5777H243.608L245.277 86.0567L245.42 85.4854C245.709 84.3927 245.87 83.5167 245.872 82.7849C245.88 81.8823 245.604 81.0193 244.998 80.4031C244.442 79.7469 243.596 79.3875 242.732 79.4006C241.51 79.3995 240.336 79.8969 239.268 80.7667C238.201 81.6323 237.134 82.8953 236.013 84.5635C235.742 84.9673 235.838 85.5089 236.229 85.7963L237.045 86.3969C237.242 86.5411 237.49 86.6001 237.732 86.5583C237.973 86.5177 238.188 86.3797 238.326 86.1782C239.202 84.8953 239.969 83.9578 240.58 83.3875C241.09 82.8901 241.5 82.7001 241.646 82.6662C241.666 82.7067 241.677 82.7443 241.682 82.8006L241.422 84.2911L241.257 84.8839L239.653 91.2146L239.333 92.5203C239.07 93.4725 238.922 94.1323 238.914 94.6963C238.904 95.6427 239.286 96.5515 239.977 97.1938C240.645 97.8406 241.545 98.187 242.488 98.187H242.518C243.641 98.1859 244.753 97.7433 245.857 96.9786C246.966 96.2078 248.149 95.0506 249.461 93.4969C249.62 93.3094 249.693 93.0662 249.669 92.8214C249.644 92.5777 249.52 92.3537 249.328 92.2026ZM252.972 69.3865C252.456 69.0062 251.841 68.8875 251.186 68.8865C250.59 68.8813 250.029 69.1443 249.6 69.5307C249.168 69.9162 248.822 70.4187 248.505 71.0334L247.458 72.8891C246.788 73.6469 245.984 74.2745 245.026 74.7807C244.473 75.0725 244.053 75.311 243.738 75.5177C243.581 75.6234 243.45 75.7157 243.32 75.8343C243.216 75.9761 242.99 76.0401 242.929 76.6453C242.925 76.8901 242.99 77.3015 243.357 77.601C243.682 77.8395 243.894 77.8501 244.132 77.8953L244.258 77.9047C245.778 77.8823 247.552 77.0766 249.908 75.6167C251.092 74.8719 252.008 74.1677 252.665 73.4501C253.313 72.7365 253.752 71.9734 253.758 71.1037C253.773 70.4777 253.521 69.7875 252.972 69.3865Z" fill="white"/>
<path d="M272.058 91.7459L271.241 91.1783C270.833 90.8945 270.27 90.9934 269.986 91.4022C269.061 92.7199 268.28 93.6522 267.708 94.1574C267.216 94.6429 266.83 94.8475 266.626 94.9059C266.624 94.8918 266.624 94.8735 266.621 94.8502L266.686 93.8606L266.949 92.7131L270.28 80.4335C270.362 80.1314 270.282 79.8085 270.066 79.5793C269.853 79.3502 269.536 79.2497 269.228 79.3111L266.778 79.8085C266.442 79.8762 266.176 80.1262 266.085 80.4569L265.965 80.8997C265.449 80.5309 264.93 80.2183 264.402 79.9674C263.488 79.5298 262.553 79.2929 261.621 79.2939C258.566 79.2877 255.764 80.5074 253.366 82.8293C250.96 85.1366 249.677 87.8694 249.684 90.8631C249.677 92.9033 250.349 94.7121 251.676 96.0897C252.973 97.4595 254.644 98.1975 256.485 98.1871C257.984 98.1897 259.433 97.8137 260.785 97.0855C261.506 96.6965 262.192 96.2262 262.838 95.6793C262.96 96.259 263.216 96.7913 263.616 97.221C264.173 97.8407 264.984 98.1871 265.82 98.1871H265.858C266.986 98.1757 268.044 97.6063 269.156 96.6809C270.276 95.7407 271.317 94.5038 272.3 92.9787C272.566 92.5689 272.457 92.0246 272.058 91.7459ZM253.944 91.0793C253.949 88.8319 254.749 86.8319 256.449 84.9387C258.169 83.0481 259.902 82.2095 261.792 82.2017C262.378 82.2027 262.982 82.3642 263.646 82.7314C264.189 83.0325 264.694 83.4413 265.169 83.9735L263.161 91.3669C262.202 92.5855 261.206 93.5178 260.188 94.1819C259.129 94.8721 258.188 95.1715 257.34 95.1715C256.342 95.1601 255.632 94.833 254.952 94.0595C254.286 93.2783 253.949 92.3382 253.944 91.0793Z" fill="white"/>
<path d="M343.334 43.7277C342.82 43.2668 342.164 43.1349 341.481 43.1323C341.067 43.1443 340.666 43.2458 339.93 43.4266C339.216 43.6089 338.259 43.8771 337.052 44.2354C334.7 44.9307 332.764 45.2651 331.286 45.2641C330.02 45.2745 327.333 44.6729 323.481 43.424C319.534 42.1548 316.336 41.501 313.809 41.4985C307.897 41.4892 302.68 43.7391 298.354 48.1365C294.015 52.5193 291.796 57.7651 291.804 63.6911C291.804 64.699 291.867 65.6558 291.992 66.5646C292.114 67.4619 292.285 68.3422 292.507 69.2026C292.924 70.6807 293.515 72.1365 294.279 73.5818C291.312 74.9282 288.921 76.6782 287.144 78.8433C285.187 81.2182 284.164 83.8615 284.168 86.6625C284.146 90.199 285.887 93.1495 289.096 95.1677C292.299 97.2094 296.455 98.187 301.518 98.187H301.559C309.938 98.1886 316.755 95.5619 321.779 90.3067C324.484 87.4813 326.561 84.2911 328.003 80.7521C329.487 77.1234 330.274 73.1599 330.368 68.8813H336.009C336.252 68.8813 336.479 68.7875 336.651 68.6167C336.82 68.4463 336.913 68.2182 336.913 67.9777V66.8058C336.913 66.5673 336.819 66.3354 336.651 66.1662C336.482 65.9985 336.249 65.9021 336.009 65.9021H330.622C331.047 62.2094 331.683 59.2859 332.503 57.1662C333.395 54.8501 334.652 52.9422 336.276 51.4073C337.397 50.3277 338.872 49.3605 340.72 48.5167C341.715 48.061 342.479 47.6401 343.052 47.2053C343.596 46.7677 344.088 46.311 344.124 45.4917C344.14 44.8422 343.875 44.1453 343.334 43.7277ZM329.166 55.0334C327.584 57.8709 326.447 61.4906 325.719 65.9021H316.367C316.13 65.9021 315.895 65.9985 315.728 66.1662C315.559 66.3354 315.463 66.5673 315.463 66.8058V67.9777C315.463 68.2157 315.559 68.4474 315.728 68.6167C315.898 68.7849 316.13 68.8813 316.367 68.8813H325.364C325.283 73.0933 324.624 76.911 323.4 80.3395C322.228 83.6261 320.594 86.4395 318.498 88.8067C314.624 93.1391 308.958 95.3406 301.234 95.3501C296.826 95.3501 293.354 94.4786 290.763 92.8162C288.167 91.1234 287.024 89.1677 287.004 86.6427C287.009 84.5791 287.824 82.6339 289.592 80.6938C291.247 78.8865 293.447 77.449 296.239 76.3901C297.865 78.1755 299.776 79.5673 301.947 80.5427C304.307 81.6037 306.875 82.1313 309.616 82.1313L309.68 82.1286L311.705 81.9865L312.507 81.9151C312.752 81.8917 312.976 81.7719 313.132 81.5766C313.286 81.3823 313.352 81.1375 313.32 80.8917L313.176 79.8615C313.109 79.3719 312.661 79.0282 312.173 79.0881L310.759 79.2599L309.591 79.2938C307.318 79.2927 305.176 78.851 303.162 77.9673C301.656 77.3058 300.411 76.4933 299.409 75.5307C299.619 75.4802 299.819 75.437 300.007 75.3995C300.569 75.2901 301.234 75.199 301.992 75.1297L302.04 75.1234C302.836 75.0073 303.435 74.9318 303.816 74.8995C304.171 74.8682 304.883 74.8485 305.888 74.8485C307.978 74.8485 309.898 75.0739 311.654 75.5141C313.4 75.9553 314.996 76.6339 316.452 77.5515C316.662 77.6818 316.905 77.7234 317.144 77.6662C317.383 77.6089 317.585 77.4619 317.711 77.2521L318.243 76.3641C318.495 75.9449 318.368 75.4031 317.958 75.1391C316.074 73.9255 313.982 73.0167 311.695 72.4151C309.411 71.8119 306.963 71.5141 304.359 71.5141C303.167 71.5151 301.913 71.6261 300.604 71.8458C299.497 72.0323 298.335 72.2719 297.116 72.5635C296.323 71.3485 295.731 70.1026 295.33 68.8162C294.879 67.363 294.641 65.6547 294.643 63.6922C294.651 58.8225 296.338 54.6479 299.794 50.9917C303.28 47.3266 306.979 45.5854 311.039 45.5792C311.845 45.5777 312.966 45.7094 314.364 45.984C315.768 46.26 317.411 46.6531 319.291 47.1635C323.187 48.2485 326.048 48.8068 328.018 48.811C330.58 48.811 333.471 48.2927 336.707 47.2782L337.212 47.1286C336.791 47.3422 336.403 47.5558 336.043 47.7719C333.132 49.6115 330.834 52.0427 329.166 55.0334Z" fill="white"/>
<path d="M352.395 91.7459L351.577 91.1783C351.171 90.8944 350.608 90.9944 350.323 91.4007C349.397 92.7183 348.601 93.6663 347.989 94.2131C347.512 94.6574 347.124 94.8527 346.957 94.9084C346.957 94.9074 346.957 94.9074 346.957 94.9059C346.949 94.1975 347.267 92.3527 347.927 89.6235C348.583 86.884 349.429 83.8683 350.465 80.5751C350.559 80.2808 350.495 79.9568 350.295 79.721C350.096 79.4855 349.788 79.3658 349.484 79.4084L346.889 79.7642C346.596 79.8032 346.343 79.983 346.208 80.247C343.523 85.4882 341.233 89.3251 339.388 91.7131C337.557 94.1402 336.004 95.135 335.36 95.0663C335.124 95.0559 335.036 95.0152 334.875 94.8631C334.711 94.6808 334.673 94.5778 334.665 94.371V93.5568L334.973 92.6314L337.531 84.9959L337.549 84.936L337.869 83.7027L337.892 83.5882L337.999 82.7418L338.004 82.6298C338.007 81.7798 337.78 80.9735 337.26 80.3579C336.785 79.7704 336.052 79.3876 335.288 79.4007C334.24 79.4136 333.283 79.9568 332.255 80.8147C331.223 81.6887 330.049 83.0074 328.673 84.8032C328.528 84.9944 328.463 85.2407 328.497 85.4803C328.532 85.7183 328.663 85.9371 328.857 86.0803L329.673 86.6808C329.869 86.824 330.112 86.8824 330.349 86.8459C330.588 86.8068 330.799 86.6767 330.943 86.4814C331.848 85.2262 332.588 84.3303 333.109 83.833C333.4 83.5715 333.663 83.3694 333.848 83.2511L333.803 83.5142L333.636 84.1106L331.429 90.5907L331.183 91.3502C330.803 92.509 330.591 93.398 330.585 94.1548C330.575 95.285 330.965 96.3396 331.749 97.0819C332.495 97.8084 333.492 98.1964 334.544 98.1871C336.293 98.1896 337.957 97.3814 339.449 95.9475C340.465 94.9658 341.823 93.1835 343.58 90.548C343.488 90.9683 343.411 91.3423 343.352 91.6678C343.112 92.9907 342.983 94.0246 342.981 94.833C342.979 95.7158 343.221 96.5516 343.763 97.1912C344.288 97.833 345.104 98.1871 345.936 98.1871C345.952 98.1871 345.967 98.1871 345.983 98.1871C347.148 98.1835 348.276 97.6532 349.389 96.7642C350.512 95.8606 351.58 94.6002 352.635 92.9814C352.9 92.5726 352.795 92.0246 352.395 91.7459Z" fill="white"/>
<path d="M429.359 91.747L428.545 91.1783C428.135 90.8945 427.573 90.9945 427.289 91.4007C426.365 92.7199 425.582 93.6522 425.01 94.1574C424.515 94.6429 424.13 94.8475 423.927 94.9059C423.926 94.8929 423.925 94.8746 423.923 94.8502L423.986 93.8642L424.253 92.7027L427.583 80.4345C427.665 80.1314 427.585 79.8085 427.37 79.5793C427.155 79.3502 426.838 79.2486 426.531 79.3111L424.079 79.8085C423.746 79.8762 423.477 80.1287 423.389 80.4579L423.267 80.9007C422.75 80.5309 422.229 80.2199 421.702 79.9674C420.786 79.5298 419.85 79.2939 418.919 79.2939C415.865 79.2877 413.059 80.509 410.665 82.8293C408.257 85.1366 406.974 87.8694 406.982 90.8631C406.982 91.0361 406.993 91.2043 407.002 91.3735L406.667 91.1601C406.255 90.8954 405.71 91.0063 405.435 91.4085C404.534 92.7251 403.75 93.6705 403.142 94.2131C402.654 94.6689 402.258 94.8631 402.098 94.9126C402.097 94.9111 402.094 94.9111 402.094 94.9101C402.075 94.8683 402.075 94.8475 402.074 94.8355C402.074 94.6287 402.102 94.3563 402.165 94.0309C402.231 93.6939 402.318 93.3199 402.431 92.9153L402.447 92.8511L402.477 92.7027L404.277 86.0169C404.373 85.7002 404.458 85.3945 404.534 85.0959C404.607 84.7991 404.659 84.5741 404.69 84.3877C404.705 84.3007 404.747 84.1169 404.813 83.8735L404.845 83.635V83.0689C404.849 82.0699 404.577 81.1445 403.961 80.4517C403.346 79.7407 402.419 79.3893 401.455 79.4007C399.595 79.4309 397.807 80.6522 395.79 82.7653C394.526 84.1038 393.13 85.8814 391.589 88.1054L392.171 85.7314L392.547 84.3787L392.575 84.2341L392.693 83.1429L392.697 83.0481C392.701 82.0533 392.427 81.1314 391.811 80.4423C391.194 79.7366 390.27 79.3893 389.306 79.3997C387.463 79.4293 385.737 80.6533 383.838 82.747C382.711 84.0022 381.471 85.6585 380.105 87.7235C380.254 87.0778 380.387 86.4893 380.501 85.9579C380.853 84.3033 381.038 83.2538 381.045 82.5715C381.042 81.7121 380.903 80.9621 380.466 80.3434C380.041 79.7235 379.277 79.3825 378.542 79.4007C377.453 79.4178 376.459 79.997 375.362 80.923C374.651 81.5335 373.909 82.2965 373.131 83.2131C373.213 82.9439 373.255 82.6637 373.253 82.3814C373.271 81.5413 372.889 80.7054 372.214 80.2043C371.575 79.6314 370.717 79.397 369.791 79.4007C368.157 79.4413 366.747 80.5897 365.185 82.4778C364.341 83.5153 363.37 84.9554 362.255 86.8147C362.323 86.5142 362.386 86.2287 362.443 85.9579C362.794 84.3033 362.981 83.2538 362.987 82.5715C362.983 81.7121 362.846 80.9621 362.409 80.3423C361.983 79.7235 361.219 79.3825 360.485 79.4007C359.395 79.4189 358.402 79.9986 357.305 80.9241C356.214 81.8563 355.057 83.1481 353.797 84.8059C353.651 84.9986 353.589 85.2434 353.622 85.483C353.658 85.721 353.789 85.9371 353.982 86.0803L354.799 86.6809C355.201 86.9762 355.767 86.8893 356.062 86.4882C356.961 85.2653 357.695 84.3721 358.231 83.8371C358.553 83.5491 358.818 83.345 359.005 83.233C359.007 83.2303 359.007 83.2303 359.01 83.2278C358.987 83.4267 358.843 84.2418 358.583 85.3721C358.283 86.7043 357.831 88.5923 357.229 91.0283L355.735 97.0674C355.663 97.3606 355.741 97.6678 355.945 97.8902C356.117 98.0819 356.359 98.1871 356.611 98.1871C356.657 98.1871 356.701 98.1835 356.745 98.1783L359.161 97.8226C359.45 97.7798 359.703 97.5986 359.835 97.3371C361.133 94.7694 362.313 92.535 363.37 90.635C364.427 88.7382 365.375 87.1757 366.206 85.9554C367.021 84.7626 367.745 83.885 368.329 83.345C368.834 82.8642 369.229 82.6913 369.383 82.6653C369.466 82.6793 369.523 82.6975 369.557 82.7121C369.538 82.7913 369.514 82.8475 369.493 82.8877C369.357 83.0074 369.214 83.0934 369.046 83.1574C368.698 83.2902 368.466 83.6221 368.461 83.9934C368.458 84.3642 368.682 84.7002 369.026 84.8407L369.63 85.0855L369.823 85.1402L370.463 85.2459L370.61 85.2574C371.03 85.2601 371.43 85.1325 371.783 84.9241C371.69 85.0934 371.653 85.2887 371.679 85.483C371.717 85.721 371.846 85.9371 372.039 86.0803L372.857 86.6809C373.259 86.9762 373.825 86.8893 374.119 86.4866C375.018 85.2669 375.755 84.3721 376.289 83.8355C376.61 83.5491 376.878 83.345 377.062 83.2314C377.062 83.2303 377.065 83.2287 377.067 83.2278C377.045 83.4257 376.901 84.2418 376.641 85.3721C376.341 86.7054 375.889 88.5923 375.286 91.0273L373.793 97.0663C373.721 97.3631 373.799 97.673 374.007 97.8981C374.179 98.0855 374.421 98.1871 374.671 98.1871C374.721 98.1871 374.77 98.1835 374.819 98.1757L376.95 97.8215C377.223 97.7746 377.458 97.609 377.594 97.3658C380.255 92.5491 382.617 88.8174 384.657 86.1965C385.674 84.885 386.559 83.9178 387.273 83.3121C387.917 82.7511 388.422 82.5413 388.617 82.5221C388.719 82.5377 388.69 82.5387 388.709 82.5517C388.709 82.5533 388.747 82.5882 388.757 82.7757L388.641 83.6194L388.263 85.1221L385.165 97.0569C385.086 97.3527 385.165 97.6678 385.37 97.8929C385.575 98.1183 385.883 98.2251 386.183 98.1757L388.35 97.8215C388.611 97.7783 388.838 97.6235 388.977 97.3981C392.089 92.2694 394.687 88.4543 396.734 85.9882C397.757 84.7522 398.643 83.8407 399.354 83.2705C400.005 82.733 400.511 82.535 400.703 82.5221C400.723 82.5246 400.738 82.5273 400.747 82.5298L400.793 82.5845C400.802 82.6038 400.829 82.6897 400.834 82.8563L400.607 84.221L400.513 84.5689L398.706 91.5309L398.571 91.9293L398.562 91.9647C398.239 93.0793 398.067 94.0194 398.065 94.8382C398.057 95.7303 398.363 96.5882 398.97 97.2158C399.553 97.8434 400.385 98.1975 401.242 98.1871C402.378 98.1819 403.47 97.6481 404.578 96.7626C405.559 95.9735 406.501 94.9085 407.427 93.5715C407.761 94.5101 408.273 95.3617 408.974 96.0897C410.261 97.4502 411.921 98.1887 413.747 98.1887H413.783C415.281 98.1897 416.731 97.8137 418.083 97.0845C418.805 96.6965 419.49 96.2262 420.138 95.6793C420.258 96.259 420.515 96.7929 420.915 97.221C421.481 97.8511 422.31 98.1991 423.162 98.1871C424.289 98.1757 425.345 97.6063 426.458 96.6793C427.578 95.7407 428.619 94.5038 429.605 92.9787C429.869 92.5689 429.761 92.0246 429.359 91.747ZM411.241 91.0793C411.247 88.8319 412.047 86.8319 413.747 84.9387C415.466 83.0481 417.198 82.2095 419.089 82.2017C419.677 82.2027 420.281 82.3642 420.945 82.7303C421.489 83.0325 421.995 83.4413 422.469 83.9735L420.459 91.3683C419.501 92.5845 418.505 93.5194 417.485 94.1835C416.427 94.8721 415.486 95.1715 414.638 95.1715C413.641 95.1601 412.93 94.833 412.25 94.0595C411.583 93.2783 411.247 92.3371 411.241 91.0793Z" fill="white"/>
<path d="M454.092 91.7469L453.275 91.1782C452.867 90.8944 452.305 90.9944 452.019 91.4006C451.095 92.7182 450.312 93.6521 449.74 94.1584C449.248 94.6428 448.863 94.8474 448.66 94.9058C448.657 94.8892 448.655 94.8657 448.653 94.8329C448.653 94.6234 448.68 94.3526 448.743 94.0272C448.809 93.687 448.899 93.3136 449.011 92.9084L449.027 92.8449L449.055 92.7016L450.848 85.9673L451.183 84.522C451.295 84.01 451.352 83.5245 451.352 83.0506C451.357 82.0558 451.084 81.1324 450.468 80.4438C449.852 79.7365 448.927 79.3901 447.963 79.4006C446.12 79.4292 444.393 80.6532 442.496 82.7469C441.368 84.0021 440.128 85.6584 438.761 87.7234C438.911 87.0777 439.043 86.4892 439.157 85.9578C439.511 84.3032 439.696 83.2537 439.701 82.5714C439.699 81.712 439.56 80.962 439.123 80.3433C438.696 79.7234 437.933 79.3813 437.2 79.4006C436.111 79.4177 435.117 79.9969 434.019 80.924C432.928 81.8578 431.769 83.148 430.511 84.8058C430.365 84.9985 430.303 85.2433 430.337 85.4813C430.371 85.7209 430.501 85.937 430.696 86.0802L431.513 86.6808C431.915 86.9761 432.48 86.8892 432.777 86.4881C433.675 85.2652 434.412 84.372 434.947 83.8354C435.267 83.549 435.533 83.3449 435.719 83.2313C435.721 83.2302 435.723 83.2286 435.725 83.2277C435.701 83.4256 435.557 84.2417 435.296 85.372C434.997 86.7042 434.545 88.5922 433.944 91.0272L432.451 97.0673C432.376 97.363 432.456 97.674 432.665 97.898C432.837 98.0844 433.076 98.187 433.327 98.187C433.376 98.187 433.427 98.1834 433.476 98.1756L435.608 97.8198C435.881 97.7745 436.115 97.6089 436.251 97.3668C438.912 92.549 441.275 88.8173 443.312 86.1949C444.331 84.884 445.217 83.9177 445.929 83.312C446.584 82.7406 447.096 82.5334 447.284 82.522C447.305 82.5245 447.321 82.5272 447.331 82.5297L447.373 82.5818L447.375 82.5829C447.384 82.6053 447.409 82.687 447.415 82.8485L447.2 84.2026L447.108 84.5568L445.253 91.5229L445.115 91.911L445.105 91.9474C444.761 93.0646 444.573 94.0089 444.572 94.8381C444.565 95.7286 444.872 96.5881 445.48 97.2157C446.063 97.8433 446.892 98.1974 447.751 98.187C448.887 98.1808 449.979 97.648 451.087 96.7641C452.208 95.8605 453.278 94.6001 454.333 92.9829C454.6 92.5725 454.493 92.0245 454.092 91.7469Z" fill="white"/>
<path d="M452.981 14.2835C452.981 14.2835 461.545 26.5855 468.553 32.5022C475.56 38.4189 479.764 44.0246 491.13 31.8787C502.5 19.733 502.81 7.27567 504.368 4.16114C505.925 1.04647 506.688 0.726204 507.334 0.818871C507.982 0.91114 512.053 2.48927 506.781 19.1325C501.51 35.7773 489.61 59.273 503.466 69.9674C517.324 80.6626 519.404 80.647 524.008 82.0674C528.61 83.4882 533.714 83.673 533.714 87.0923C533.714 90.5117 524.329 95.4986 507.158 89.4735C507.158 89.4735 489.8 80.6246 485.318 76.1429C485.318 76.1429 474.698 98.0959 470.518 119.333C470.518 119.333 469.576 123.874 467.501 123.763C465.428 123.652 464.456 120.577 465.662 109.882C466.866 99.1887 468.674 84.7287 469.653 78.0257C470.632 71.3226 472.74 63.4907 464.758 47.3746C456.774 31.259 452.772 25.833 448.988 20.1574C445.205 14.483 447.556 10.3538 448.932 10.7563C450.306 11.1574 451.441 12.1418 452.981 14.2835Z" fill="white"/>
<path d="M487.727 15.1158C484.496 15.1158 480.519 18.6574 480.519 18.6574C480.519 18.6574 476.48 13.1887 472.316 13.1887C466.165 13.1887 466.847 19.8996 466.847 19.8996C466.847 28.2262 480.332 36.0559 480.332 36.0559C480.923 35.4658 481.855 34.5335 485.832 30.5568C489.808 26.5792 491.579 22.6964 491.579 19.962C491.579 17.2278 490.212 15.1158 487.727 15.1158ZM480.456 33.6324C480.456 33.6324 469.707 27.9778 469.707 20.2106C469.707 20.2106 469.832 16.109 473.683 16.109C477.536 16.109 480.208 21.7642 480.208 21.7642C480.208 21.7642 484.06 17.7876 487.043 17.7876C489.095 17.7876 489.529 20.273 489.529 21.2043C489.529 22.1366 489.156 25.9892 480.456 33.6324Z" fill="#D31515"/>
<path d="M6.00781 8.73817H16.3541V10.2027H7.61875V16.3511H15.7443V17.8163H7.61875V26.0142H6.00781V8.73817Z" fill="white"/>
<path d="M67.1878 19.4022C67.1878 23.0855 65.6018 26.4543 60.893 26.4543C56.1831 26.4543 54.5977 23.0855 54.5977 19.4022V8.73822H56.2081V18.9866C56.2081 21.4517 56.8669 24.9893 60.893 24.9893C64.919 24.9893 65.5779 21.4517 65.5779 18.9866V8.73822H67.1878V19.4022Z" fill="white"/>
<path d="M106.23 8.73817H108.305L118.821 23.8668H118.87V8.73817H120.48V26.0142H118.406L107.89 10.885H107.841V26.0142H106.23V8.73817Z" fill="white"/>
<path d="M159.281 8.73817H164.625C173.605 8.73817 173.972 16.1079 173.972 17.3762C173.972 18.6454 173.605 26.0142 164.625 26.0142H159.281V8.73817ZM160.893 24.5507H164.211C168.799 24.5507 172.36 22.3292 172.36 17.3762C172.36 12.423 168.799 10.2027 164.211 10.2027H160.893V24.5507Z" fill="white"/>
<path d="M216.265 8.73817H217.925L225.196 26.0142H223.391L221.512 21.4267H212.361L210.409 26.0142H208.727L216.265 8.73817ZM217.023 10.4959L212.996 19.9631H220.927L217.023 10.4959Z" fill="white"/>
<path d="M276.858 23.3059C275.225 25.5507 272.98 26.4543 270.442 26.4543C265.17 26.4543 261.512 22.647 261.512 17.3762C261.512 12.1063 265.17 8.29915 270.442 8.29915C272.785 8.29915 274.884 9.08035 276.394 11.0074L275.077 12.1063C274.004 10.4959 272.173 9.76421 270.442 9.76421C265.928 9.76421 263.121 13.0819 263.121 17.3762C263.121 21.6705 265.928 24.9893 270.442 24.9893C272.173 24.9893 274.322 24.1601 275.541 22.3059L276.858 23.3059Z" fill="white"/>
<path d="M314.184 8.73817H315.794V26.0142H314.184V8.73817Z" fill="white"/>
<path d="M364.142 8.29915C369.412 8.29915 373.072 12.1063 373.072 17.3762C373.072 22.647 369.412 26.4543 364.142 26.4543C358.872 26.4543 355.211 22.647 355.211 17.3762C355.211 12.1063 358.872 8.29915 364.142 8.29915ZM364.142 24.9893C368.656 24.9893 371.463 21.6705 371.463 17.3762C371.463 13.0819 368.656 9.76421 364.142 9.76421C359.627 9.76421 356.822 13.0819 356.822 17.3762C356.822 21.6705 359.627 24.9893 364.142 24.9893Z" fill="white"/>
<path d="M412.25 8.73817H414.325L424.841 23.8668H424.89V8.73817H426.501V26.0142H424.426L413.909 10.885H413.859V26.0142H412.25V8.73817Z" fill="white"/>
</svg>
