<svg width="182" height="70" viewBox="0 0 182 70" fill="none" xmlns="http://www.w3.org/2000/svg">
<g clip-path="url(#clip0_353_5081)">
<path d="M74.345 35.3477H84.0303L84.4449 39.3174H81.2373V51.0536H77.1373V39.3174H73.9299L74.345 35.3477Z" fill="black"/>
<path d="M85.4583 35.3477H93.8778L94.5109 39.4927H89.558V41.1281H92.7866V45.2731H89.558V46.9085H95.0553L93.9874 51.0536H85.4583V35.3477Z" fill="black"/>
<path d="M96.0361 35.3477H100.137V46.9085H105.634L104.564 51.0536H96.0361V35.3477Z" fill="black"/>
<path d="M106.325 35.3477H114.744L115.376 39.4927H110.426V41.1281H113.653V45.2731H110.426V46.9085H115.923L114.853 51.0536H106.325V35.3477Z" fill="black"/>
<path d="M116.82 35.3477H125.24L125.872 39.4927H120.92V41.1281H124.149V45.2731H120.92V51.0536H116.82V35.3477Z" fill="black"/>
<path d="M126.794 35.3477H135.214L135.847 39.4927H130.895V41.1281H134.123V45.2731H130.895V46.9085H136.392L135.324 51.0536H126.794V35.3477Z" fill="black"/>
<path d="M141.472 42.72C143 42.72 143.938 42.1973 143.938 40.7786C143.938 39.361 143 38.8372 141.472 38.8372V42.72ZM137.372 35.3477H142.76C145.879 35.3477 148.038 37.0494 148.038 40.3866C148.038 42.0666 147.275 43.3318 145.902 44.2475L148.911 51.0536H144.286L141.516 44.5752H141.472V51.0536H137.372V35.3477Z" fill="black"/>
<path d="M149.676 35.3477H153.776V51.0536H149.676V35.3477Z" fill="black"/>
<path d="M164.792 51.1836C164.095 51.3579 163.375 51.445 162.654 51.445C157.811 51.445 154.933 47.6723 154.933 43.0471C154.933 38.619 158.16 34.9551 162.698 34.9551C163.505 34.9551 164.313 35.0204 164.705 35.1293L164.988 39.907C164.575 39.5564 163.526 39.3604 162.982 39.3604C160.865 39.3604 159.295 40.888 159.295 43.0253C159.295 45.8398 161.149 47.0396 163.025 47.0396C163.745 47.0396 164.617 46.8862 165.163 46.4496L164.792 51.1836Z" fill="black"/>
<path d="M173.369 39.1862C171.252 39.1862 169.486 40.9751 169.486 43.1995C169.486 45.425 171.252 47.2129 173.369 47.2129C175.506 47.2129 177.252 45.3379 177.252 43.1995C177.252 41.0622 175.506 39.1862 173.369 39.1862ZM173.369 51.445C168.984 51.445 165.297 47.7583 165.297 43.1995C165.297 38.6407 168.984 34.9551 173.369 34.9551C177.753 34.9551 181.439 38.6407 181.439 43.1995C181.439 47.7583 177.753 51.445 173.369 51.445Z" fill="black"/>
<path d="M48.1691 69.3624C47.4712 69.5366 46.7513 69.6237 46.0311 69.6237C41.1895 69.6237 38.31 65.8509 38.31 61.2258C38.31 56.7976 41.5378 53.1338 46.0756 53.1338C46.8817 53.1338 47.6891 53.1991 48.082 53.308L48.3656 58.0856C47.9512 57.7361 46.904 57.5401 46.3584 57.5401C44.2426 57.5401 42.6729 59.0667 42.6729 61.204C42.6729 64.0185 44.5261 65.2184 46.4029 65.2184C47.1221 65.2184 47.995 65.0659 48.5399 64.6293L48.1691 69.3624Z" fill="black"/>
<path d="M49.7903 53.5264H58.2102L58.8433 57.6704H53.8911V59.3057H57.1197V63.4508H53.8911V65.0862H59.3882L58.3196 69.2313H49.7903V53.5264Z" fill="black"/>
<path d="M64.387 60.8986C65.913 60.8986 66.8509 60.3749 66.8509 58.9563C66.8509 57.5397 65.913 57.0149 64.387 57.0149V60.8986ZM60.2855 53.5264H65.6731C68.7923 53.5264 70.9524 55.2271 70.9524 58.5653C70.9524 60.2443 70.1888 61.5095 68.8147 62.4262L71.8246 69.2313H67.2004L64.4296 62.7528H64.387V69.2313H60.2855V53.5264Z" fill="black"/>
<path d="M76.4547 60.8986C77.9823 60.8986 78.9196 60.3749 78.9196 58.9563C78.9196 57.5397 77.9823 57.0149 76.4547 57.0149V60.8986ZM72.3539 53.5264H77.741C80.8609 53.5264 83.02 55.2271 83.02 58.5653C83.02 60.2443 82.2562 61.5095 80.8827 62.4262L83.8934 69.2313H79.268L76.4981 62.7528H76.4547V69.2313H72.3539V53.5264Z" fill="black"/>
<path d="M91.3368 57.3649C89.2212 57.3649 87.4541 59.1538 87.4541 61.3792C87.4541 63.6037 89.2212 65.3926 91.3368 65.3926C93.4749 65.3926 95.2195 63.5166 95.2195 61.3792C95.2195 59.2409 93.4749 57.3649 91.3368 57.3649ZM91.3368 69.6237C86.9517 69.6237 83.2666 65.937 83.2666 61.3792C83.2666 56.8205 86.9517 53.1338 91.3368 53.1338C95.7211 53.1338 99.4078 56.8205 99.4078 61.3792C99.4078 65.937 95.7211 69.6237 91.3368 69.6237Z" fill="black"/>
<path d="M115.39 57.3649C113.275 57.3649 111.508 59.1538 111.508 61.3792C111.508 63.6037 113.275 65.3926 115.39 65.3926C117.528 65.3926 119.273 63.5166 119.273 61.3792C119.273 59.2409 117.528 57.3649 115.39 57.3649ZM115.39 69.6237C111.007 69.6237 107.32 65.937 107.32 61.3792C107.32 56.8205 111.007 53.1338 115.39 53.1338C119.775 53.1338 123.461 56.8205 123.461 61.3792C123.461 65.937 119.775 69.6237 115.39 69.6237Z" fill="black"/>
<path d="M123.28 53.5264H132.965L133.38 57.4951H130.173V69.2313H126.072V57.4951H122.866L123.28 53.5264Z" fill="black"/>
<path d="M133.215 53.5264H142.9L143.316 57.4951H140.109V69.2313H136.008V57.4951H132.801L133.215 53.5264Z" fill="black"/>
<path d="M151.038 57.3649C148.922 57.3649 147.156 59.1538 147.156 61.3792C147.156 63.6037 148.922 65.3926 151.038 65.3926C153.176 65.3926 154.921 63.5166 154.921 61.3792C154.921 59.2409 153.176 57.3649 151.038 57.3649ZM151.038 69.6237C146.654 69.6237 142.967 65.937 142.967 61.3792C142.967 56.8205 146.654 53.1338 151.038 53.1338C155.423 53.1338 159.108 56.8205 159.108 61.3792C159.108 65.937 155.423 69.6237 151.038 69.6237Z" fill="black"/>
<path d="M130.769 22.8307L131.854 18.6182L134.817 17.2192L136.418 16.6146V13.63L106.646 0.146484L76.878 13.63V16.6146L78.4801 17.2202L81.4396 18.6161L82.5261 22.8317L76.014 24.3126V26.4561C76.014 26.4561 92.1721 22.9001 106.646 22.9001C121.134 22.9001 137.041 28.0562 137.041 28.0562V24.2576L130.769 22.8307Z" fill="black"/>
<path d="M95.375 28.7669C95.9848 28.7669 104.595 26.0861 104.898 26.0945L104.956 25.0678C104.919 25.0657 104.213 25.0273 102.905 25.0273C92.946 25.0263 48.0072 27.2269 0.00850677 64.4265H11.6339C58.6457 27.9849 86.0106 28.77 95.375 28.7669Z" fill="black"/>
<path d="M6.73628 38.502C7.01985 38.502 7.18796 38.5165 7.18796 38.5165C7.18796 38.5165 9.24381 38.5165 11.1437 39.0827C13.0436 39.6468 13.7605 40.3655 14.3245 43.2931C14.8916 46.2185 14.3783 48.4793 13.7087 50.8925C13.0436 53.3056 10.7831 53.819 10.7831 53.819C10.7831 53.819 7.59913 53.819 4.61968 53.819C1.64224 53.819 0.924015 52.3816 0.408738 50.738C-0.102894 49.0953 -0.514062 42.5225 1.64224 40.3655C3.31933 38.6886 5.74178 38.502 6.73628 38.502Z" fill="black"/>
<path d="M28.7134 28.8418C28.9625 28.8418 29.1095 28.8542 29.1095 28.8542C29.1095 28.8542 30.9082 28.8542 32.5691 29.3489C34.2299 29.8426 34.8578 30.471 35.3509 33.0325C35.8462 35.5909 35.3966 37.5675 34.8121 39.6778C34.2299 41.7892 32.2531 42.2382 32.2531 42.2382C32.2531 42.2382 29.4688 42.2382 26.862 42.2382C24.2586 42.2382 23.6307 40.9803 23.1799 39.543C22.7322 38.1067 22.3729 32.3584 24.2586 30.471C25.7251 29.0047 27.8444 28.8418 28.7134 28.8418Z" fill="black"/>
<path d="M49.6465 19.5225C49.8726 19.5225 50.0062 19.5339 50.0062 19.5339C50.0062 19.5339 51.6428 19.5339 53.1518 19.9839C54.6607 20.433 55.2319 21.0033 55.6804 23.3315C56.1313 25.6586 55.7229 27.4558 55.1914 29.3743C54.6607 31.2939 52.865 31.7015 52.865 31.7015C52.865 31.7015 50.3344 31.7015 47.9646 31.7015C45.5956 31.7015 45.0256 30.5586 44.6164 29.2519C44.2094 27.9463 43.882 22.7186 45.5956 21.0033C46.9304 19.6697 48.8566 19.5225 49.6465 19.5225Z" fill="black"/>
<path d="M1.27564 45.6631C1.16909 47.6272 1.35261 49.61 1.58958 50.3702C2.0198 51.7422 2.39573 52.5832 4.61968 52.5832H10.6077C10.9756 52.4598 12.1309 51.9672 12.5178 50.5641C12.9695 48.9339 13.338 47.3908 13.3231 45.6672C12.442 45.774 10.6332 46.1204 7.63762 46.1204C5.9188 46.1204 3.81152 46.0032 1.27564 45.6631Z" fill="#D31515"/>
<path d="M106.636 1.7666L87.2954 11.1207C91.581 10.5877 97.0604 10.1583 103.604 10.1583C111.187 10.1583 118.984 10.7391 126.887 11.8912L106.636 1.7666Z" fill="#D31515"/>
<path d="M23.9385 35.1035C23.8454 36.8219 24.0053 38.5569 24.212 39.2215C24.5895 40.4204 24.9176 41.1577 26.862 41.1577H32.0999C32.4212 41.0499 33.4319 40.6174 33.7702 39.3906C34.1659 37.9646 34.4872 36.6155 34.4751 35.1076C33.7054 35.201 32.1222 35.5038 29.5024 35.5038C27.9996 35.5038 26.1552 35.4011 23.9385 35.1035Z" fill="#D31515"/>
<path d="M45.3052 25.2158C45.2209 26.7776 45.3659 28.3549 45.5551 28.9584C45.8974 30.0484 46.1963 30.7183 47.9646 30.7183H52.7252C53.0181 30.6208 53.9357 30.2278 54.2435 29.113C54.604 27.8167 54.8958 26.5898 54.8844 25.2189C54.1835 25.3039 52.7467 25.5798 50.3648 25.5798C48.9976 25.5798 47.3213 25.4865 45.3052 25.2158Z" fill="#D31515"/>
<path d="M94.8943 13.5332C94.92 13.6016 94.9503 13.668 94.9558 13.7447L95.606 21.2622C98.6829 21.0164 102.156 20.8183 105.845 20.7436V13.1494C103.124 13.1629 99.4988 13.1671 94.8943 13.5332Z" fill="white"/>
<path d="M118.343 13.7254C114.527 13.376 110.901 13.2018 107.446 13.1582V20.7441C111.136 20.8188 114.608 21.0169 117.686 21.2626L118.337 13.7441C118.337 13.7379 118.343 13.7327 118.343 13.7254Z" fill="white"/>
<path d="M129.836 15.275C126.392 14.659 123.097 14.2037 119.929 13.875C119.929 13.8781 119.93 13.8812 119.93 13.8843L119.281 21.3977C123.283 21.7523 126.477 22.1681 128.42 22.4492C128.421 22.444 128.42 22.4389 128.42 22.4347L129.836 15.275Z" fill="white"/>
<path d="M84.875 22.449C86.8171 22.169 90.0099 21.7531 94.0123 21.3974L93.3613 13.8831C93.3551 13.8063 93.3722 13.7348 93.3862 13.6621C90.5015 13.9308 87.255 14.3487 83.6461 14.9906L84.875 22.4438C84.875 22.4459 84.8735 22.4479 84.875 22.449Z" fill="white"/>
<path d="M7.17257 39.6484C5.57165 39.6484 4.46168 39.9564 4.25914 40.0166C1.97239 41.0204 1.37569 43.9811 1.3283 44.7174C3.56643 45.0213 5.68791 45.1748 7.63761 45.1748C10.0487 45.1748 11.6825 44.9414 12.6587 44.8035C12.8641 44.7734 13.0403 44.7486 13.1955 44.7289C13.1955 43.8588 12.6992 41.8708 12.3537 41.3149C12.0154 40.7705 11.6042 40.4791 11.4726 40.394C10.0844 39.8993 8.63823 39.6484 7.17257 39.6484Z" fill="white"/>
<path d="M29.0954 29.8438C27.6957 29.8438 26.7244 30.1133 26.5473 30.1662C24.547 31.0436 24.0256 33.6331 23.9839 34.2771C25.9417 34.5425 27.7971 34.6773 29.5024 34.6773C31.611 34.6773 33.0398 34.4731 33.8937 34.3517C34.0728 34.3258 34.2279 34.3051 34.3625 34.2874C34.3635 33.5273 33.9289 31.7861 33.6271 31.3018C33.3314 30.8258 32.9709 30.5707 32.8567 30.4971C31.6422 30.0636 30.3775 29.8438 29.0954 29.8438Z" fill="white"/>
<path d="M49.9941 20.4326C48.7209 20.4326 47.839 20.6774 47.6778 20.7262C45.8589 21.5236 45.3842 23.8787 45.3465 24.4636C47.1261 24.7053 48.8133 24.8276 50.3648 24.8276C52.2809 24.8276 53.5799 24.642 54.3569 24.531C54.5198 24.5082 54.6595 24.4885 54.7832 24.4729C54.7843 23.7812 54.3881 22.1987 54.1147 21.758C53.8445 21.3255 53.5173 21.0943 53.4131 21.0258C52.3092 20.6327 51.1595 20.4326 49.9941 20.4326Z" fill="white"/>
</g>
<defs>
<clipPath id="clip0_353_5081">
<rect width="182" height="70" fill="white"/>
</clipPath>
</defs>
</svg>
